<?xml version="1.0" standalone="no"?>
<!DOCTYPE svg PUBLIC "-//W3C//DTD SVG 20010904//EN"
 "http://www.w3.org/TR/2001/REC-SVG-20010904/DTD/svg10.dtd">
<svg version="1.0" xmlns="http://www.w3.org/2000/svg"
 width="200.000000pt" height="200.000000pt" viewBox="0 0 200.000000 200.000000"
 preserveAspectRatio="xMidYMid meet">
<metadata>
Created by potrace 1.11, written by Peter Selinger 2001-2013
</metadata>
<g transform="translate(0.000000,200.000000) scale(0.100000,-0.100000)"
fill="#000000" stroke="none">
<path d="M0 1305 l0 -695 110 0 110 0 0 510 0 510 101 0 101 0 -4 -216 c-2
-149 0 -210 7 -197 5 10 33 41 61 69 72 72 154 91 261 59 60 -18 125 -81 144
-141 8 -26 14 -132 16 -316 l4 -278 95 0 94 0 0 365 0 365 89 0 c102 0 101 1
102 -88 0 -49 2 -54 12 -37 7 11 35 43 63 71 72 72 154 91 261 59 60 -18 125
-81 144 -141 8 -26 14 -132 16 -316 l4 -278 105 0 104 0 0 695 0 695 -1000 0
-1000 0 0 -695z"/>
<path d="M503 1189 c-18 -11 -43 -43 -57 -72 -26 -50 -26 -54 -26 -279 l0
-228 145 0 145 0 0 243 c0 216 -2 246 -19 284 -33 71 -121 95 -188 52z"/>
<path d="M1383 1189 c-18 -11 -43 -43 -57 -72 -26 -50 -26 -54 -26 -279 l0
-228 145 0 145 0 0 243 c0 216 -2 246 -19 284 -33 71 -121 95 -188 52z"/>
</g>
</svg>
